<svg width="20" height="20" viewBox="0 0 20 20" fill="none" xmlns="http://www.w3.org/2000/svg">
<path d="M19.1663 14.5098V17.2598C19.1674 17.5151 19.1151 17.7678 19.0128 18.0017C18.9105 18.2356 18.7605 18.4456 18.5724 18.6181C18.3843 18.7907 18.1622 18.9221 17.9203 19.0039C17.6785 19.0857 17.4222 19.1161 17.168 19.0931C14.3473 18.7866 11.6377 17.8227 9.25715 16.2789C7.04233 14.8715 5.16455 12.9938 3.75715 10.7789C2.20797 8.38753 1.24388 5.66484 0.942987 2.83143C0.92008 2.57794 0.950206 2.32246 1.03145 2.08125C1.11269 1.84004 1.24326 1.6184 1.41486 1.43042C1.58645 1.24244 1.79531 1.09225 2.02813 0.989409C2.26095 0.88657 2.51263 0.833336 2.76715 0.833097H5.51715C5.96202 0.828718 6.3933 0.986252 6.7306 1.27633C7.06791 1.56642 7.28822 1.96926 7.35049 2.40976C7.46656 3.28982 7.68182 4.15393 7.99215 4.9856C8.11549 5.31369 8.14218 5.67027 8.06907 6.01307C7.99596 6.35587 7.82611 6.67053 7.57965 6.91976L6.41549 8.08393C7.72041 10.3788 9.62057 12.279 11.9155 13.5839L13.0797 12.4198C13.3289 12.1733 13.6435 12.0035 13.9863 11.9304C14.3291 11.8572 14.6857 11.8839 15.0138 12.0073C15.8455 12.3176 16.7096 12.5329 17.5897 12.6489C18.0349 12.7118 18.4416 12.936 18.7323 13.2791C19.023 13.6222 19.1775 14.0602 19.1663 14.5098Z" stroke="#125ECB" stroke-width="1.5" stroke-linecap="round" strokeLinejoin="round"/>
</svg>
