<svg width="24" height="24" viewBox="0 0 24 24" fill="none" xmlns="http://www.w3.org/2000/svg">
<circle cx="12" cy="12" r="12" fill="#0077B5"/>
<g clip-path="url(#clip0_9_323)">
<path d="M10.2286 18C10.2286 17.9429 10.2286 17.8857 10.2286 17.8286C10.2286 15.2857 10.2286 12.7429 10.2286 10.1714C10.2286 10 10.2286 10 10.4286 10C11.1143 10 11.7714 10 12.4571 10C12.6 10 12.6 10 12.6 10.1714C12.6 10.4286 12.6 10.7143 12.6 10.9714C12.6 11 12.6 11.0571 12.6 11.1143C12.6286 11.0857 12.6571 11.0571 12.6857 11.0571C13.1429 10.3143 13.8286 9.94286 14.6857 9.82857C15.2286 9.77143 15.7714 9.82857 16.2857 10C17 10.2571 17.4571 10.7714 17.7143 11.4857C17.8571 11.8857 17.9143 12.2857 17.9429 12.7143C17.9429 12.9143 17.9714 13.1429 17.9714 13.3429C17.9714 13.3714 18 13.4286 18 13.4571C18 14.9714 18 16.5143 18 18.0286C17.1714 18.0286 16.3429 18.0286 15.5143 18.0286C15.5143 18 15.5143 17.9714 15.5143 17.9429C15.5143 16.5143 15.5143 15.0571 15.5143 13.6286C15.5143 13.4 15.4857 13.1429 15.4286 12.9143C15.3429 12.5143 15.1429 12.2286 14.7429 12.0857C14.5429 12 14.3143 12 14.0857 12C13.5143 12 13.0857 12.3143 12.8857 12.8571C12.7714 13.2 12.7143 13.5714 12.7143 13.9143C12.7143 15.2286 12.7143 16.5714 12.7143 17.8857C12.7143 17.9143 12.7143 17.9714 12.7143 18C11.8857 18 11.0571 18 10.2286 18ZM8.68571 18C8.68571 17.9429 8.68571 17.8857 8.68571 17.8286C8.68571 15.2857 8.68571 12.7143 8.68571 10.1714C8.68571 10.0286 8.68571 10.0286 8.54286 10.0286C7.82857 10.0286 7.11429 10.0286 6.4 10.0286C6.22857 10.0286 6.22857 10.0286 6.22857 10.2C6.22857 12.7429 6.22857 15.2857 6.22857 17.8571C6.22857 17.9143 6.22857 17.9714 6.22857 18.0286C7.02857 18 7.85714 18 8.68571 18ZM7.37143 6C7.28571 6.02857 7.2 6.02857 7.11429 6.05714C6.54286 6.17143 6.08571 6.68571 6.02857 7.25714C6.02857 7.28571 6 7.31429 6 7.37143C6 7.42857 6 7.48571 6 7.54286C6 7.57143 6.02857 7.6 6.02857 7.62857C6.11429 8.4 6.85714 8.97143 7.62857 8.85714C8.42857 8.74286 8.94286 8.02857 8.85714 7.28571C8.8 6.68571 8.34286 6.2 7.77143 6.05714C7.68571 6.02857 7.6 6.02857 7.51429 6C7.45714 6 7.4 6 7.37143 6Z" fill="white"/>
</g>
<defs>
<clipPath id="clip0_9_323">
<rect width="12" height="12" fill="white" transform="translate(6 6)"/>
</clipPath>
</defs>
</svg>
