<svg width="40" height="40" viewBox="0 0 40 40" fill="none" xmlns="http://www.w3.org/2000/svg">
<circle cx="20" cy="20" r="20" fill="#FBEBEB"/>
<g clip-path="url(#clip0_545_11962)">
<path d="M28.3332 24.1014V26.6014C28.3341 26.8335 28.2866 27.0632 28.1936 27.2758C28.1006 27.4885 27.9643 27.6794 27.7933 27.8363C27.6222 27.9932 27.4203 28.1126 27.2005 28.187C26.9806 28.2613 26.7477 28.2889 26.5165 28.268C23.9522 27.9894 21.489 27.1132 19.3249 25.7097C17.3114 24.4303 15.6043 22.7232 14.3249 20.7097C12.9165 18.5357 12.0401 16.0605 11.7665 13.4847C11.7457 13.2543 11.7731 13.022 11.8469 12.8027C11.9208 12.5835 12.0395 12.382 12.1955 12.2111C12.3515 12.0402 12.5414 11.9036 12.753 11.8102C12.9647 11.7167 13.1935 11.6683 13.4249 11.668H15.9249C16.3293 11.6641 16.7214 11.8073 17.028 12.071C17.3346 12.3347 17.5349 12.7009 17.5915 13.1014C17.697 13.9014 17.8927 14.687 18.1749 15.443C18.287 15.7413 18.3112 16.0655 18.2448 16.3771C18.1783 16.6888 18.0239 16.9748 17.7999 17.2014L16.7415 18.2597C17.9278 20.346 19.6552 22.0734 21.7415 23.2597L22.7999 22.2014C23.0264 21.9773 23.3125 21.8229 23.6241 21.7565C23.9358 21.69 24.2599 21.7143 24.5582 21.8264C25.3143 22.1085 26.0998 22.3042 26.8999 22.4097C27.3047 22.4668 27.6744 22.6707 27.9386 22.9826C28.2029 23.2945 28.3433 23.6927 28.3332 24.1014Z" stroke="#CB0000" stroke-width="1.6" stroke-linecap="round" strokeLinejoin="round"/>
</g>
<defs>
<clipPath id="clip0_545_11962">
<rect width="20" height="20" fill="white" transform="translate(10 10)"/>
</clipPath>
</defs>
</svg>
