<svg width="40" height="40" viewBox="0 0 40 40" fill="none" xmlns="http://www.w3.org/2000/svg">
<path d="M40 20C40 31.0457 31.0457 40 20 40C8.9543 40 0 31.0457 0 20C0 8.9543 8.9543 0 20 0C31.0457 0 40 8.9543 40 20Z" fill="#E3EFFF"/>
<path d="M22.084 11.6641H15.0007C14.5586 11.6641 14.1347 11.8397 13.8221 12.1522C13.5096 12.4648 13.334 12.8887 13.334 13.3307V26.6641C13.334 27.1061 13.5096 27.53 13.8221 27.8426C14.1347 28.1551 14.5586 28.3307 15.0007 28.3307H25.0007C25.4427 28.3307 25.8666 28.1551 26.1792 27.8426C26.4917 27.53 26.6673 27.1061 26.6673 26.6641V16.2474L22.084 11.6641Z" stroke="#125ECB" stroke-width="1.6" stroke-linecap="round" strokeLinejoin="round"/>
<path d="M21.666 11.6641V16.6641H26.666" stroke="#125ECB" stroke-width="1.6" stroke-linecap="round" strokeLinejoin="round"/>
</svg>
