<svg width="40" height="40" viewBox="0 0 40 40" fill="none" xmlns="http://www.w3.org/2000/svg">
<circle cx="20" cy="20" r="20" fill="#EEFAF6"/>
<g clip-path="url(#clip0_545_11944)">
<path d="M20.7088 10C21.1553 10.0574 21.6104 10.0902 22.057 10.164C22.5541 10.2542 23.0597 10.3608 23.5484 10.4838C24.0034 10.5986 24.1635 11.0168 23.936 11.4185C23.4641 12.2385 22.9754 13.0503 22.4951 13.862C22.453 13.9358 22.4024 14.0178 22.3519 14.108C22.9838 14.3294 23.4473 14.7148 23.6411 15.3544C23.8349 15.9775 23.6916 16.5515 23.304 17.0517C23.6916 17.3223 24.0877 17.5683 24.45 17.8553C26.4217 19.4706 27.6098 21.5205 28.0564 23.9886C28.2333 24.9807 28.2418 25.9811 27.9974 26.9651C27.6267 28.4738 26.6576 29.4824 25.2168 30.0973C24.3152 30.4827 23.3546 30.6795 22.3856 30.7861C21.9306 30.8353 21.4671 30.8681 21.0121 30.9091C20.338 30.9091 19.6723 30.9091 18.9982 30.9091C18.5432 30.8681 18.0798 30.8353 17.6248 30.7861C16.3777 30.6467 15.1559 30.3761 14.0689 29.7365C12.7966 28.9904 12.0972 27.8916 11.9034 26.4895C11.5664 24.0542 12.2742 21.8567 13.6729 19.856C14.4987 18.667 15.0801 18.1586 16.6979 17.0763C16.3103 16.5597 16.1502 15.9857 16.3524 15.3544C16.5547 14.7312 17.0012 14.3376 17.6416 14.1162C17.5995 14.0342 17.5574 13.9604 17.5152 13.8866C17.0434 13.0913 16.5799 12.2959 16.1081 11.5005C15.8132 11.0086 15.9817 10.615 16.5547 10.4592C17.3973 10.2378 18.2567 10.082 19.1331 10.0328C19.1836 10.0328 19.2426 10.0082 19.2932 10C19.7566 10 20.2369 10 20.7088 10ZM19.9925 29.7119C20.6919 29.6709 21.3913 29.6545 22.0822 29.5889C22.9923 29.507 23.877 29.343 24.7196 28.9822C25.9161 28.4656 26.6324 27.5882 26.843 26.3255C26.9778 25.4973 26.9357 24.6692 26.7419 23.8492C26.2532 21.7173 25.1831 19.9216 23.3799 18.6014C21.6525 17.3387 19.765 17.0435 17.7596 17.9209C16.6221 18.421 15.7205 19.2082 14.9874 20.1676C13.6476 21.9223 12.9145 23.8738 13.1168 26.0877C13.2095 27.0799 13.6223 27.9162 14.465 28.523C15.0042 28.9084 15.6109 29.1462 16.2513 29.3102C17.4731 29.6299 18.7286 29.6873 19.9925 29.7119ZM17.5658 11.4759C17.5742 11.5087 17.5658 11.5251 17.5742 11.5333C18.004 12.2631 18.4337 13.0011 18.8719 13.7226C18.9056 13.7718 18.9982 13.8046 19.0657 13.8046C19.6723 13.8128 20.279 13.7964 20.8857 13.8128C21.029 13.8128 21.0964 13.78 21.1638 13.6652C21.4671 13.1405 21.7789 12.6157 22.0907 12.0909C22.2086 11.8941 22.3266 11.6891 22.453 11.4759C20.8014 11.1398 19.1836 11.1398 17.5658 11.4759ZM19.8914 14.9854C19.765 14.9936 19.5207 15.01 19.2763 15.0264C19.1499 15.0346 19.0235 15.051 18.9056 15.0756C18.5769 15.1494 18.2483 15.215 17.9365 15.3216C17.6079 15.4282 17.4478 15.7725 17.5574 16.0841C17.6669 16.4039 17.945 16.5351 18.2989 16.4449C19.4533 16.1333 20.5992 16.1333 21.7536 16.4613C21.998 16.5351 22.1833 16.4531 22.3266 16.2891C22.6215 15.9529 22.4698 15.461 22.0317 15.3134C21.3744 15.092 20.7003 14.9854 19.8914 14.9854Z" fill="#008E1A"/>
<path d="M19.3687 26.8827C19.4529 26.6285 19.3012 26.4973 19.0316 26.3579C18.7283 26.2021 18.4671 25.9561 18.2311 25.7184C17.9868 25.4724 18.0289 25.1034 18.2817 24.8738C18.5345 24.6524 18.8968 24.6688 19.158 24.8984C19.3181 25.046 19.4866 25.2018 19.672 25.3084C19.9416 25.4642 20.2281 25.415 20.4304 25.2346C20.6157 25.0706 20.6831 24.8164 20.5989 24.5786C20.5062 24.3244 20.2871 24.1768 19.9669 24.1686C19.0822 24.1358 18.3407 23.5373 18.1637 22.7255C17.9783 21.8645 18.3996 21.0446 19.217 20.6674C19.335 20.61 19.3855 20.5608 19.3771 20.4296C19.3687 20.2574 19.3687 20.0934 19.3771 19.9212C19.3855 19.544 19.6467 19.2734 20.009 19.2734C20.3714 19.2734 20.6326 19.5522 20.6326 19.9294C20.6326 20.1098 20.641 20.282 20.6326 20.4624C20.6242 20.569 20.6831 20.61 20.7674 20.6592C21.0286 20.8068 21.2898 20.9544 21.5173 21.1348C21.8207 21.3807 21.8291 21.7661 21.5847 22.0203C21.3488 22.2745 20.9781 22.2745 20.6831 22.0449C20.5483 21.9383 20.4051 21.8399 20.245 21.7743C19.9922 21.6677 19.7478 21.7251 19.554 21.9219C19.3771 22.1023 19.3265 22.3237 19.4276 22.5615C19.5372 22.8157 19.7394 22.9387 20.0175 22.9469C20.6073 22.9633 21.1044 23.1847 21.4752 23.6356C22.242 24.5622 21.9218 25.9397 20.8095 26.4481C20.6747 26.5137 20.6242 26.5793 20.6326 26.7187C20.641 26.8909 20.641 27.0713 20.6326 27.2517C20.6157 27.5961 20.3377 27.8585 19.9922 27.8585C19.6551 27.8503 19.3855 27.5961 19.3687 27.2599C19.3602 27.1451 19.3687 27.0385 19.3687 26.8827Z" fill="#008E1A"/>
</g>
<defs>
<clipPath id="clip0_545_11944">
<rect width="16.3636" height="20.9091" fill="white" transform="translate(11.8184 10)"/>
</clipPath>
</defs>
</svg>
