<svg width="40" height="40" viewBox="0 0 40 40" fill="none" xmlns="http://www.w3.org/2000/svg">
<path d="M40 20C40 31.0457 31.0457 40 20 40C8.9543 40 0 31.0457 0 20C0 8.9543 8.9543 0 20 0C31.0457 0 40 8.9543 40 20Z" fill="#E3EFFF"/>
<path d="M18.332 11.6641H21.6654" stroke="#125ECB" stroke-width="1.6" stroke-linecap="round" strokeLinejoin="round"/>
<path d="M20 21.6693V18.3359" stroke="#125ECB" stroke-width="1.6" stroke-linecap="round" strokeLinejoin="round"/>
<path d="M13.334 20.8335C13.538 19.2135 14.3295 17.7247 15.5584 16.6495C16.7872 15.5743 18.3679 14.9874 20.0007 15.0002C21.079 15.0014 22.141 15.2641 23.0955 15.7658C24.0501 16.2676 24.8686 16.9934 25.481 17.8811C26.0934 18.7687 26.4813 19.7916 26.6115 20.8621C26.7417 21.9326 26.6102 23.0187 26.2284 24.0272C25.8466 25.0357 25.2259 25.9366 24.4194 26.6525C23.613 27.3684 22.6449 27.878 21.5982 28.1375C20.5515 28.3971 19.4575 28.3989 18.41 28.1427C17.3625 27.8866 16.3928 27.3801 15.584 26.6669L13.334 24.6669" stroke="#125ECB" stroke-width="1.6" stroke-linecap="round" strokeLinejoin="round"/>
<path d="M17.4987 24.1641H13.332V28.3307" stroke="#125ECB" stroke-width="1.6" stroke-linecap="round" strokeLinejoin="round"/>
</svg>
