<svg width="40" height="40" viewBox="0 0 40 40" fill="none" xmlns="http://www.w3.org/2000/svg">
<circle cx="20" cy="20" r="20" fill="#EBF4FD"/>
<path d="M20 11.668V28.3346" stroke="#125ECB" stroke-width="2" stroke-linecap="round" strokeLinejoin="round"/>
<path d="M24.1667 14.168H17.9167C17.1431 14.168 16.4013 14.4753 15.8543 15.0222C15.3073 15.5692 15 16.3111 15 17.0846C15 17.8582 15.3073 18.6 15.8543 19.147C16.4013 19.694 17.1431 20.0013 17.9167 20.0013H22.0833C22.8569 20.0013 23.5987 20.3086 24.1457 20.8556C24.6927 21.4026 25 22.1444 25 22.918C25 23.6915 24.6927 24.4334 24.1457 24.9804C23.5987 25.5273 22.8569 25.8346 22.0833 25.8346H15" stroke="#125ECB" stroke-width="2" stroke-linecap="round" strokeLinejoin="round"/>
</svg>
