<svg width="40" height="40" viewBox="0 0 40 40" fill="none" xmlns="http://www.w3.org/2000/svg">
<circle cx="20" cy="20" r="20" fill="#EEFAF6"/>
<circle cx="20" cy="20" r="20" fill="#FFF4E2"/>
<path d="M26.6673 19.9987V16.6654H15.0007C14.5586 16.6654 14.1347 16.4898 13.8221 16.1772C13.5096 15.8646 13.334 15.4407 13.334 14.9987C13.334 14.082 14.084 13.332 15.0007 13.332H25.0007V16.6654" stroke="#F1A100" stroke-width="1.6" stroke-linecap="round" strokeLinejoin="round"/>
<path d="M13.334 15V25C13.334 25.9167 14.084 26.6667 15.0007 26.6667H26.6673V23.3333" stroke="#F1A100" stroke-width="1.6" stroke-linecap="round" strokeLinejoin="round"/>
<path d="M25.0007 20C24.5586 20 24.1347 20.1756 23.8221 20.4882C23.5096 20.8007 23.334 21.2246 23.334 21.6667C23.334 22.5833 24.084 23.3333 25.0007 23.3333H28.334V20H25.0007Z" stroke="#F1A100" stroke-width="1.6" stroke-linecap="round" strokeLinejoin="round"/>
</svg>
