<svg width="42" height="42" viewBox="0 0 42 42" fill="none" xmlns="http://www.w3.org/2000/svg">
<circle opacity="0.2" cx="21" cy="21" r="21" fill="#A3C3F0"/>
<g clip-path="url(#clip0_27_9322)">
<path d="M13.9114 24.716C13.9114 25.1004 13.9114 25.4527 13.9114 25.821C13.9114 26.7018 13.9279 27.5986 13.9114 28.4794C13.8949 29.2481 13.2851 29.9047 12.5268 29.9847C11.7026 30.0808 10.9444 29.6164 10.7301 28.8477C10.6807 28.6716 10.6642 28.4794 10.6642 28.2872C10.6642 27.1022 10.6642 25.9171 10.6642 24.7321C10.6642 24.5719 10.6312 24.4758 10.4664 24.3797C9.59274 23.8993 9.09824 23.1787 9.04879 22.2018C9.01582 21.4171 8.99934 20.6164 9.04879 19.8157C9.11472 18.3424 10.2686 17.3175 11.8015 17.3014C12.5763 17.2854 13.3345 17.3014 14.1092 17.2854C17.1422 17.2054 19.6807 16.0684 21.7246 13.9064C22.1532 13.458 22.5488 13.0096 22.9774 12.5612C23.4883 12.0167 24.1477 11.8726 24.84 12.1288C25.5158 12.3851 25.9279 12.9456 25.9279 13.6662C25.9279 18.5666 25.9279 23.4509 25.9279 28.3513C25.9279 29.0719 25.5323 29.6324 24.8565 29.8886C24.1807 30.1449 23.5048 29.9847 22.9938 29.4563C22.3345 28.7676 21.7246 28.047 21.0158 27.4064C19.0872 25.6929 16.8125 24.7961 14.2081 24.716C14.1257 24.716 14.0433 24.716 13.9114 24.716ZM14.4719 23.6591C14.5543 23.6591 14.6037 23.6751 14.6532 23.6751C17.2246 23.8513 19.5158 24.7321 21.4444 26.3815C22.2521 27.0701 22.9609 27.9029 23.7026 28.6716C23.9004 28.8797 24.1147 29.0079 24.4279 28.8958C24.7081 28.7997 24.807 28.6075 24.8235 28.2392C24.8235 27.6947 24.8235 27.1502 24.8235 26.6057C24.8235 22.3299 24.8235 18.0381 24.8235 13.7623C24.8235 13.394 24.7081 13.2178 24.4279 13.1057C24.1312 12.9936 23.9004 13.1217 23.7191 13.3459C23.3565 13.7463 22.9938 14.1306 22.6312 14.531C20.818 16.5007 18.5927 17.7338 15.9059 18.1982C15.4444 18.2783 14.9664 18.3264 14.4883 18.3904C14.4719 20.12 14.4719 21.8815 14.4719 23.6591ZM13.3675 23.6271C13.3675 21.8655 13.3675 20.12 13.3675 18.3584C12.7905 18.3584 12.2136 18.3424 11.6532 18.3584C10.829 18.3904 10.1532 19.047 10.1367 19.8317C10.1202 20.6004 10.1202 21.3691 10.1367 22.1377C10.1532 22.8584 10.7466 23.531 11.4883 23.595C12.0982 23.6751 12.7246 23.6271 13.3675 23.6271ZM11.7521 24.716C11.7521 24.9883 11.7521 25.2285 11.7521 25.4847C11.7521 26.4296 11.7521 27.3904 11.7521 28.3353C11.7521 28.5755 11.818 28.7837 12.0653 28.8797C12.4609 29.0559 12.84 28.7997 12.84 28.3513C12.84 27.1822 12.84 26.0292 12.84 24.8602C12.84 24.8121 12.8235 24.7641 12.8235 24.716C12.4609 24.716 12.1312 24.716 11.7521 24.716Z" fill="white"/>
<path d="M30.8074 21.5296C30.2964 21.5296 29.7854 21.5296 29.2744 21.5296C28.8788 21.5296 28.6151 21.3054 28.6316 20.9851C28.6481 20.6648 28.8953 20.4727 29.2744 20.4727C30.2964 20.4727 31.3184 20.4727 32.3404 20.4727C32.736 20.4727 32.9832 20.6808 32.9832 20.9851C32.9997 21.3054 32.736 21.5296 32.3404 21.5296C31.8294 21.5456 31.3184 21.5296 30.8074 21.5296Z" fill="white"/>
<path d="M28.7302 17.2845C28.417 17.2845 28.2522 17.1885 28.1533 16.9963C28.0544 16.7881 28.0874 16.5799 28.2522 16.4038C28.5654 16.0835 28.8786 15.7792 29.2082 15.4749C29.4225 15.2667 29.6533 15.0425 29.8841 14.8344C30.1478 14.5941 30.4445 14.6102 30.6753 14.8344C30.8896 15.0586 30.8896 15.3308 30.6423 15.587C30.1148 16.0995 29.5874 16.6119 29.0599 17.1244C28.9445 17.2045 28.7797 17.2525 28.7302 17.2845Z" fill="white"/>
<path d="M28.7137 24.7168C28.7797 24.7488 28.928 24.7969 29.0434 24.893C29.5874 25.4054 30.1148 25.9179 30.6258 26.4303C30.8731 26.6865 30.8731 26.9748 30.6423 27.199C30.4115 27.4072 30.1148 27.4232 29.8676 27.183C29.3236 26.6705 28.7797 26.1421 28.2522 25.6136C28.0874 25.4374 28.0544 25.2293 28.1533 25.0211C28.2357 24.8129 28.417 24.7168 28.7137 24.7168Z" fill="white"/>
</g>
<defs>
<clipPath id="clip0_27_9322">
<rect width="24" height="18" fill="white" transform="translate(9 12)"/>
</clipPath>
</defs>
</svg>
