<svg width="18" height="18" viewBox="0 0 18 18" fill="none" xmlns="http://www.w3.org/2000/svg">
<path d="M15.75 5.625V4.5C15.75 4.10218 15.592 3.72064 15.3107 3.43934C15.0294 3.15804 14.6478 3 14.25 3H3.75C3.35218 3 2.97064 3.15804 2.68934 3.43934C2.40804 3.72064 2.25 4.10218 2.25 4.5V15C2.25 15.3978 2.40804 15.7794 2.68934 16.0607C2.97064 16.342 3.35218 16.5 3.75 16.5H6.375" stroke="#686E80" stroke-width="1.5" stroke-linecap="round" strokeLinejoin="round"/>
<path d="M12.0915 8.25H11.9085C11.6879 8.25 11.4764 8.33763 11.3204 8.4936C11.1644 8.64958 11.0768 8.86113 11.0768 9.08171V9.15656C11.0767 9.30241 11.0382 9.44566 10.9652 9.57193C10.8922 9.69821 10.7873 9.80306 10.6609 9.87599L10.4821 9.97995C10.3557 10.053 10.2123 10.0914 10.0663 10.0914C9.92028 10.0914 9.77686 10.053 9.65042 9.97995L9.58804 9.94668C9.39719 9.83659 9.17046 9.80673 8.95761 9.86364C8.74476 9.92056 8.56319 10.0596 8.45276 10.2503L8.36127 10.4083C8.25118 10.5991 8.22132 10.8259 8.27823 11.0387C8.33515 11.2516 8.47419 11.4331 8.66485 11.5436L8.72723 11.5852C8.85293 11.6577 8.95745 11.7619 9.0304 11.8874C9.10336 12.0129 9.1422 12.1553 9.14308 12.3004V12.5125C9.14366 12.6591 9.10551 12.8032 9.03248 12.9302C8.95945 13.0573 8.85415 13.1628 8.72723 13.2361L8.66485 13.2735C8.47419 13.3839 8.33515 13.5655 8.27823 13.7784C8.22132 13.9912 8.25118 14.2179 8.36127 14.4088L8.45276 14.5668C8.56319 14.7575 8.74476 14.8965 8.95761 14.9534C9.17046 15.0104 9.39719 14.9805 9.58804 14.8704L9.65042 14.8371C9.77686 14.7641 9.92028 14.7257 10.0663 14.7257C10.2123 14.7257 10.3557 14.7641 10.4821 14.8371L10.6609 14.9411C10.7873 15.014 10.8922 15.1189 10.9652 15.2452C11.0382 15.3714 11.0767 15.5147 11.0768 15.6605V15.7354C11.0768 15.956 11.1644 16.1675 11.3204 16.3235C11.4764 16.4795 11.6879 16.5671 11.9085 16.5671H12.0915C12.3121 16.5671 12.5236 16.4795 12.6796 16.3235C12.8356 16.1675 12.9232 15.956 12.9232 15.7354V15.6605C12.9233 15.5147 12.9618 15.3714 13.0348 15.2452C13.1078 15.1189 13.2127 15.014 13.339 14.9411L13.5179 14.8371C13.6443 14.7641 13.7877 14.7257 13.9337 14.7257C14.0797 14.7257 14.2231 14.7641 14.3496 14.8371L14.412 14.8704C14.6028 14.9805 14.8295 15.0104 15.0424 14.9534C15.2552 14.8965 15.4368 14.7575 15.5472 14.5668L15.6387 14.4046C15.7488 14.2138 15.7787 13.9871 15.7218 13.7742C15.6649 13.5614 15.5258 13.3798 15.3351 13.2694L15.2728 13.2361C15.1458 13.1628 15.0405 13.0573 14.9675 12.9302C14.8945 12.8032 14.8563 12.6591 14.8569 12.5125V12.3046C14.8563 12.158 14.8945 12.0139 14.9675 11.8868C15.0405 11.7598 15.1458 11.6543 15.2728 11.581L15.3351 11.5436C15.5258 11.4331 15.6649 11.2516 15.7218 11.0387C15.7787 10.8259 15.7488 10.5991 15.6387 10.4083L15.5472 10.2503C15.4368 10.0596 15.2552 9.92056 15.0424 9.86364C14.8295 9.80673 14.6028 9.83659 14.412 9.94668L14.3496 9.97995C14.2231 10.053 14.0797 10.0914 13.9337 10.0914C13.7877 10.0914 13.6443 10.053 13.5179 9.97995L13.339 9.87599C13.2127 9.80306 13.1078 9.69821 13.0348 9.57193C12.9618 9.44566 12.9233 9.30241 12.9232 9.15656V9.08171C12.9232 8.86113 12.8356 8.64958 12.6796 8.4936C12.5236 8.33763 12.3121 8.25 12.0915 8.25Z" stroke="#686E80" stroke-width="1.1" stroke-linecap="round" strokeLinejoin="round"/>
<path d="M11.9995 13.6563C12.6885 13.6563 13.2471 13.0977 13.2471 12.4087C13.2471 11.7197 12.6885 11.1611 11.9995 11.1611C11.3105 11.1611 10.752 11.7197 10.752 12.4087C10.752 13.0977 11.3105 13.6563 11.9995 13.6563Z" stroke="#686E80" stroke-width="1.1" stroke-linecap="round" strokeLinejoin="round"/>
<path d="M12 1.5V4.5" stroke="#686E80" stroke-width="1.5" stroke-linecap="round" strokeLinejoin="round"/>
<path d="M6 1.5V4.5" stroke="#686E80" stroke-width="1.5" stroke-linecap="round" strokeLinejoin="round"/>
<path d="M2.25 7.5H6" stroke="#686E80" stroke-width="1.5" stroke-linecap="round" strokeLinejoin="round"/>
</svg>
