<svg width="141" height="141" viewBox="0 0 141 141" fill="none" xmlns="http://www.w3.org/2000/svg">
<circle cx="70.5" cy="70.5" r="70.5" fill="#F4F6F8"/>
<g clip-path="url(#clip0_840_10862)">
<path d="M48.3666 67.8757C49.9387 67.5656 51.4224 67.322 52.906 66.9897C53.1717 66.9233 53.4817 66.6354 53.6146 66.3474C54.1903 65.0628 54.6774 63.7339 55.2532 62.4715C55.4303 62.0506 55.4525 61.807 55.1867 61.4305C54.301 60.1902 53.4817 58.9277 52.6624 57.7096C54.146 56.2256 55.6075 54.7638 57.1132 53.2577C58.309 54.0772 59.5712 54.8967 60.8112 55.7826C61.2098 56.0706 61.4976 56.0263 61.9184 55.8269C63.1363 55.2511 64.3763 54.7195 65.6606 54.2544C66.1256 54.0772 66.3249 53.9 66.4135 53.4349C66.6792 51.951 66.9671 50.467 67.2771 48.9609C69.3807 48.9609 71.4179 48.9609 73.5216 48.9609C73.8094 50.467 74.1194 51.951 74.363 53.4349C74.4516 53.9222 74.6509 54.0994 75.1159 54.2766C76.4002 54.7417 77.6845 55.2954 78.9246 55.8712C79.3231 56.0484 79.5889 56.0706 79.9653 55.8048C81.2053 54.9189 82.4675 54.0994 83.6633 53.2799C85.1469 54.7638 86.6305 56.2256 88.1141 57.7096C87.3169 58.9056 86.4755 60.168 85.5898 61.4083C85.3019 61.807 85.3462 62.0949 85.5455 62.5158C86.1212 63.7339 86.6526 64.9742 87.0955 66.2588C87.2727 66.7682 87.4941 66.9454 88.0034 67.034C89.4649 67.2777 90.9263 67.5877 92.41 67.8757C92.41 69.9576 92.41 72.0174 92.41 74.1215C90.9263 74.4094 89.4427 74.7195 87.937 74.9632C87.472 75.0517 87.2727 75.2289 87.0955 75.6941C86.6305 76.9787 86.0769 78.2633 85.5012 79.5036C85.324 79.9022 85.2798 80.168 85.5455 80.5445C86.4312 81.7849 87.2505 83.0473 88.0698 84.2433C86.5862 85.7494 85.1247 87.2112 83.619 88.7173C82.4675 87.9421 81.2275 87.1226 80.0096 86.2588C79.611 85.9709 79.301 85.9488 78.836 86.1702C77.596 86.7682 76.2895 87.2112 75.0273 87.7871C74.7394 87.92 74.4294 88.2522 74.363 88.5401C74.0309 90.0241 73.7651 91.508 73.4773 93.0362C71.3958 93.0362 69.3586 93.0362 67.2328 93.0362C66.9449 91.5523 66.6349 90.0684 66.3692 88.5844C66.2806 88.1193 66.1035 87.92 65.6385 87.7428C64.3763 87.2998 63.1141 86.7682 61.8962 86.1924C61.4312 85.9709 61.1212 85.9709 60.7005 86.2588C59.4826 87.1226 58.2425 87.9421 57.0689 88.7395C55.5853 87.2555 54.1239 85.7937 52.6181 84.2876C53.4153 83.1138 54.2346 81.8735 55.0982 80.6553C55.386 80.2345 55.4082 79.9465 55.1867 79.4814C54.611 78.2633 54.1017 77.0008 53.6367 75.7383C53.4817 75.2954 53.3046 75.0517 52.8174 74.9853C51.3338 74.7417 49.8502 74.4316 48.3223 74.1437C48.3666 72.0174 48.3666 69.9798 48.3666 67.8757ZM70.3329 79.5922C75.0937 79.6143 78.9467 75.8269 78.9689 71.0872C78.991 66.3031 75.2487 62.4493 70.4879 62.405C65.6828 62.3607 61.8077 66.1702 61.7855 70.9543C61.8077 75.7162 65.5942 79.5479 70.3329 79.5922Z" fill="#3BA8FE"/>
<path d="M76.1569 102.693C76.0462 102.095 75.9798 101.563 75.8691 101.01C75.7805 100.478 75.6698 99.9465 75.5591 99.2377C79.8549 100.478 84.04 101.696 88.4023 102.959C84.7929 105.683 81.3164 108.296 77.7291 110.999C77.5298 110.002 77.3527 109.116 77.1755 108.186C66.5245 109.891 56.7814 107.743 48.1233 101.32C42.1224 96.89 37.8266 91.0871 35.2801 84.0661C30.0985 69.8468 34.2393 54.9852 43.1853 45.7715C44.4917 46.9896 45.7982 48.23 47.0825 49.4481C36.0772 61.1646 36.1437 78.5068 44.4475 89.9354C52.5963 101.165 65.7938 104.819 76.1569 102.693Z" fill="#125ECB"/>
<path d="M99.9393 94.4766C98.3893 93.2585 97.0164 92.1732 95.5549 91.0436C100.914 84.0226 103.106 76.1378 102.065 67.4113C101.29 60.8332 98.655 54.986 94.182 50.0913C86.6532 41.852 77.2644 38.5519 66.1262 39.6151C66.2591 40.7446 66.3698 41.7192 66.5026 42.8487C62.2732 41.3869 58.1988 39.9916 53.8809 38.5076C57.601 35.9827 61.2104 33.5464 64.9305 31.0215C65.1076 32.1732 65.2405 33.192 65.3733 34.1001C82.911 32.9705 96.3521 39.5486 104.08 55.4733C110.701 68.9838 108.642 82.14 99.9393 94.4766Z" fill="#9CCEFE"/>
</g>
<defs>
<clipPath id="clip0_840_10862">
<rect width="75" height="80" fill="white" transform="translate(33 31)"/>
</clipPath>
</defs>
</svg>
