<svg width="141" height="141" viewBox="0 0 141 141" fill="none" xmlns="http://www.w3.org/2000/svg">
<circle cx="70.5" cy="70.5" r="70.5" fill="#F4F6F8"/>
<g clip-path="url(#clip0_823_10889)">
<path d="M99.9355 55.7364C99.9355 57.8763 99.9569 59.9945 99.9569 62.1343C99.9569 75.1247 99.8925 88.1151 99.9999 101.127C100.043 106.466 96.1746 111.113 91.2533 111.848C91.1888 111.848 91.1244 111.934 91.0814 111.999C86.3105 111.999 81.5181 111.999 76.7258 111.999C76.4464 111.697 76.4679 111.308 76.4679 110.918C76.4679 107.914 76.4679 104.888 76.4679 101.884C76.4679 101.538 76.4679 101.17 76.6398 100.868C76.8547 100.587 77.1771 100.543 77.4779 100.414C78.359 100.046 78.8318 99.3979 78.8748 98.4252C78.8748 98.2739 78.8748 98.101 78.8748 97.9497C78.8748 88.5474 78.8748 79.1666 78.8748 69.7643C78.8748 68.489 78.4665 67.5596 77.1985 67.1273C76.9621 66.9976 76.7043 66.9328 76.5753 66.6734C76.4249 66.3492 76.4464 65.9817 76.4464 65.6359C76.4464 62.7179 76.4464 59.8 76.4464 56.9036C76.4464 55.65 76.5968 55.5203 77.8433 55.5203C84.8491 55.5203 91.8336 55.5203 98.8394 55.5203C99.2263 55.5203 99.6131 55.4771 99.9355 55.7364Z" fill="#9CCEFE"/>
<path d="M76.7256 100.825C76.7256 104.543 76.7256 108.261 76.7256 112C71.9547 112 67.1624 112 62.37 112C61.5963 111.741 60.8012 111.525 60.049 111.179C56.4601 109.601 54.3111 106.877 53.6449 102.965C53.5159 102.209 53.5159 101.474 53.5159 100.717C53.5159 88.8508 53.5159 77.006 53.5159 65.1396C53.5159 64.8154 53.6663 64.4264 53.344 64.1454C53.301 63.7563 53.6019 63.5834 53.8168 63.3456C56.2882 60.8383 58.7596 58.3527 61.2525 55.867C61.4674 55.6508 61.6608 55.3482 62.0476 55.3915C62.1551 55.586 62.3485 55.586 62.5419 55.586C67.2698 55.586 72.0192 55.5644 76.7471 55.5644C77.0265 55.305 77.3918 55.3266 77.7357 55.3266C84.7845 55.3266 91.8334 55.3266 98.8823 55.3266C99.2476 55.3266 99.6344 55.3266 99.9568 55.586C99.9783 55.6292 99.9568 55.6941 99.9568 55.7373C92.5426 55.7373 85.1069 55.7373 77.6927 55.7157C76.9835 55.7157 76.7256 55.867 76.7256 56.6451C76.7686 60.017 76.7471 63.3889 76.7471 66.7607C76.5752 67.0849 76.2528 67.1498 75.9734 67.3011C75.0708 67.7118 74.641 68.425 74.5981 69.3977C74.5981 69.6139 74.5766 69.83 74.5766 70.0461C74.5766 79.2107 74.5766 88.3753 74.5766 97.5399C74.5766 98.5126 74.7055 99.4204 75.5436 100.069C75.8875 100.328 76.3388 100.415 76.6611 100.696C76.6611 100.76 76.6826 100.782 76.7256 100.825Z" fill="#9CCEFE"/>
<path d="M71.5677 29.0001C73.2655 29.4108 74.5334 30.5132 75.6939 31.7452C76.7255 32.8475 77.8215 33.885 78.8745 34.9658C79.8845 36.0033 79.9275 37.4082 78.896 38.4457C73.7168 43.698 68.4946 48.9072 63.2939 54.1379C63.2294 54.2027 63.122 54.246 63.0145 54.3108C62.6922 54.246 62.5203 53.9866 62.3268 53.7921C59.4471 50.8957 56.5674 47.9993 53.6877 45.0814C53.4513 44.8436 53.1504 44.6275 53.0859 44.2384C53.1289 43.8277 53.4513 43.59 53.7307 43.3306C55.3424 41.7095 56.9542 40.0884 58.566 38.4673C59.5331 37.5379 60.4572 36.5652 61.4242 35.6142C61.6391 35.398 61.8111 35.1603 62.1119 35.0738C63.2724 33.9283 64.4759 32.8043 65.5934 31.6155C66.6679 30.4699 67.8499 29.5189 69.3327 28.9785C70.0634 29.0001 70.8156 29.0001 71.5677 29.0001Z" fill="#3BA8FE"/>
<path d="M53.1508 44.1953C53.774 44.8438 54.3972 45.5138 55.0419 46.1622C57.5134 48.6479 59.9848 51.1336 62.4562 53.6409C62.6711 53.857 62.9075 54.0083 63.0149 54.3109C62.6926 54.6784 62.3487 55.0458 62.0263 55.4133C59.1251 58.3312 56.2239 61.2492 53.3227 64.1672C51.453 66.0477 49.5619 67.9497 47.6922 69.8302C46.3383 71.1919 45.0489 71.1919 43.7165 69.8518C42.4056 68.5333 41.0946 67.2365 39.7837 65.8964C37.3768 63.4323 37.3768 60.0604 39.7837 57.5964C41.2021 56.1266 42.7279 54.7648 44.0603 53.2086C44.6191 52.344 45.4572 51.7172 46.1449 50.9823C46.5532 50.5284 47.026 50.0961 47.4558 49.6638C49.0891 48.0427 50.7009 46.4 52.3127 44.7789C52.5705 44.5195 52.764 44.1953 53.1508 44.1953Z" fill="#3BA8FE"/>
<path d="M62.0917 35.073C60.9957 36.2834 59.8352 37.429 58.6532 38.553C58.2879 38.6394 58.116 38.3584 57.9225 38.1639C57.4283 37.6884 56.934 37.1696 56.4397 36.6725C55.6016 35.8511 54.9998 35.8295 54.1617 36.6509C52.9797 37.8181 51.8193 39.0069 50.6373 40.1957C50.4009 40.4334 50.1645 40.736 49.7992 40.8009C49.6702 40.8009 49.5198 40.8009 49.4123 40.7144C48.3593 39.8066 47.3922 38.7907 46.4466 37.7532C46.3177 37.6019 46.3177 37.4074 46.4037 37.2129C47.9725 35.635 49.4983 33.9707 51.1316 32.4576C53.431 30.3394 57.1919 30.4043 59.5128 32.5009C60.4154 33.3438 61.2321 34.23 62.0917 35.073Z" fill="#125ECB"/>
<path d="M46.4032 37.2129C46.4247 37.5803 46.6826 37.7749 46.919 37.991C47.886 38.8556 48.6167 39.9796 49.7772 40.6496C49.9061 40.9738 49.6053 41.0603 49.4548 41.2116C48.2944 42.4004 47.1124 43.5676 45.9519 44.7564C44.7055 46.0316 44.7055 46.6585 45.9304 47.9337C46.4892 48.5173 47.2413 48.9712 47.5422 49.7926C46.4462 50.9814 45.3287 52.1702 44.1037 53.2077C43.3301 52.4296 42.5349 51.6514 41.7827 50.8517C39.3328 48.2363 39.3328 44.4105 41.7827 41.86C43.2871 40.2822 44.8559 38.7691 46.4032 37.2129Z" fill="#125ECB"/>
<path d="M85.1074 83.7939C85.1074 79.0387 85.1074 74.2835 85.1074 69.5283C85.1074 67.972 86.1175 66.8481 87.4929 66.8265C88.8897 66.8049 89.9428 67.972 89.9428 69.5715C89.9428 79.0819 89.9428 88.5924 89.9428 98.0812C89.9428 99.1403 89.5989 99.9832 88.6534 100.502C87.8367 100.978 86.9986 100.913 86.2034 100.416C85.3868 99.8968 85.0859 99.097 85.0859 98.1244C85.1074 93.3476 85.1074 88.5707 85.1074 83.7939Z" fill="#125ECB"/>
<path d="M77.2408 66.9121C78.4872 67.2147 79.1534 68.0145 79.1534 69.3329C79.1749 71.8619 79.1534 74.4124 79.1534 76.9413C79.1534 83.9876 79.1534 91.0124 79.1534 98.0587C79.1534 99.7879 78.3583 100.696 76.7035 100.847L76.725 100.804C76.4242 100.501 76.4456 100.112 76.4456 99.7447C76.4456 89.1751 76.4456 78.6056 76.4456 68.0361C76.4671 67.0202 76.5531 66.9121 77.2408 66.9121Z" fill="#125ECB"/>
<path d="M77.2416 66.913C76.8332 66.913 76.7043 67.1292 76.7043 67.5182C76.7258 68.1018 76.7043 68.707 76.7043 69.2906C76.7043 79.7953 76.7043 90.2784 76.7043 100.783C75.243 100.675 74.2974 99.724 74.2974 98.2758C74.2759 88.6357 74.2759 78.9956 74.2974 69.3555C74.2974 67.9721 75.0066 67.2589 76.7043 66.7617C76.8977 66.8049 77.1126 66.7401 77.2416 66.913Z" fill="#125ECB"/>
<path d="M68.3881 83.7938C68.3881 88.5922 68.3881 93.4123 68.3881 98.2107C68.3881 100.113 66.7978 101.28 65.143 100.653C64.3694 100.351 63.8536 99.7886 63.6817 98.9672C63.5957 98.5782 63.5742 98.1675 63.5742 97.7568C63.5742 88.4626 63.5742 79.1899 63.5742 69.8956C63.5742 69.4633 63.5957 69.031 63.7032 68.6204C63.9825 67.518 65.1215 66.7399 66.1961 66.8696C67.3995 66.9993 68.3021 67.8855 68.3881 69.0743C68.4096 69.3769 68.4096 69.6579 68.4096 69.9605C68.3881 74.5644 68.3881 79.1683 68.3881 83.7938Z" fill="#125ECB"/>
</g>
<defs>
<clipPath id="clip0_823_10889">
<rect width="62" height="83" fill="white" transform="translate(38 29)"/>
</clipPath>
</defs>
</svg>
