<svg width="15" height="10" viewBox="0 0 15 10" fill="none" xmlns="http://www.w3.org/2000/svg">
<path d="M1.07015 10C0.771802 10 0.518859 9.90476 0.311315 9.71429C0.103772 9.52381 0 9.29167 0 9.01786V0.982143C0 0.708333 0.103772 0.476191 0.311315 0.285714C0.518859 0.0952381 0.771802 0 1.07015 0H12.939C13.2374 0 13.4903 0.0952381 13.6979 0.285714C13.9054 0.476191 14.0092 0.708333 14.0092 0.982143V9.01786C14.0092 9.29167 13.9054 9.52381 13.6979 9.71429C13.4903 9.90476 13.2374 10 12.939 10H1.07015ZM7.00459 4.89286L13.406 0.964286L13.1725 0.553572L7.00459 4.26786L0.836659 0.553572L0.603173 0.964286L7.00459 4.89286Z" fill="white"/>
</svg>
