<svg width="16" height="17" viewBox="0 0 16 17" fill="none" xmlns="http://www.w3.org/2000/svg">
<path d="M13.3327 6.71029C13.3327 10.7103 7.99935 14.7103 7.99935 14.7103C7.99935 14.7103 2.66602 10.7103 2.66602 6.71029C2.66602 5.2958 3.22792 3.93924 4.22811 2.93905C5.22831 1.93886 6.58486 1.37695 7.99935 1.37695C9.41384 1.37695 10.7704 1.93886 11.7706 2.93905C12.7708 3.93924 13.3327 5.2958 13.3327 6.71029Z" fill="white"/>
<path d="M8 8.71094C9.10457 8.71094 10 7.81551 10 6.71094C10 5.60637 9.10457 4.71094 8 4.71094C6.89543 4.71094 6 5.60637 6 6.71094C6 7.81551 6.89543 8.71094 8 8.71094Z" fill="#1B252E"/>
</svg>
