<svg width="12" height="16" viewBox="0 0 12 16" fill="none" xmlns="http://www.w3.org/2000/svg">
<path d="M3.13937 10.6863C2.23683 9.40202 1.55865 7.9141 1.10485 6.22251C0.650381 4.53086 0.504421 2.75527 0.666966 0.895731C0.6817 0.652592 0.760081 0.455999 0.902107 0.305951C1.04413 0.155904 1.2143 0.0899134 1.4126 0.107981L3.66646 0.343878C3.84824 0.36044 3.99895 0.442828 4.11858 0.591043C4.23851 0.739694 4.30443 0.921523 4.31632 1.13653L4.47548 4.26815C4.48341 4.41149 4.46717 4.54243 4.42675 4.66099C4.38633 4.77955 4.32174 4.88572 4.23297 4.9795L2.71507 6.58313C2.8992 7.10924 3.11317 7.62279 3.35698 8.12378C3.6008 8.62476 3.88332 9.10381 4.20457 9.56092C4.52581 10.018 4.87048 10.4314 5.23856 10.8011C5.60665 11.1708 5.98927 11.5062 6.38644 11.8072L7.90435 10.2036C7.99311 10.1098 8.0883 10.0472 8.18991 10.0157C8.29151 9.98419 8.39954 9.98385 8.51399 10.0146L11.0166 10.6705C11.1883 10.7167 11.325 10.8233 11.4269 10.9902C11.5291 11.1577 11.5734 11.3528 11.5599 11.5757L11.4171 14.3436C11.4024 14.5868 11.324 14.7834 11.182 14.9334C11.0399 15.0834 10.8698 15.1494 10.6715 15.1314C9.15509 15.0645 7.74638 14.6279 6.44532 13.8216C5.1439 13.0156 4.04192 11.9705 3.13937 10.6863Z" fill="white"/>
</svg>
