<svg width="20" height="20" viewBox="0 0 20 20" fill="none" xmlns="http://www.w3.org/2000/svg">
<path d="M4.1665 10.0002C4.1665 10.0002 6.28734 5.8335 9.99984 5.8335C13.7115 5.8335 15.8332 10.0002 15.8332 10.0002C15.8332 10.0002 13.7115 14.1668 9.99984 14.1668C6.28734 14.1668 4.1665 10.0002 4.1665 10.0002Z" stroke="#686E80" stroke-width="1.5" stroke-linecap="round" strokeLinejoin="round"/>
<path d="M9.99984 10.8332C10.2209 10.8332 10.4328 10.7454 10.5891 10.5891C10.7454 10.4328 10.8332 10.2209 10.8332 9.99984C10.8332 9.77882 10.7454 9.56686 10.5891 9.41058C10.4328 9.2543 10.2209 9.1665 9.99984 9.1665C9.77882 9.1665 9.56686 9.2543 9.41058 9.41058C9.2543 9.56686 9.1665 9.77882 9.1665 9.99984C9.1665 10.2209 9.2543 10.4328 9.41058 10.5891C9.56686 10.7454 9.77882 10.8332 9.99984 10.8332V10.8332Z" stroke="#686E80" stroke-width="1.5" stroke-linecap="round" strokeLinejoin="round"/>
<path d="M17.5 14.1665V15.8332C17.5 16.2752 17.3244 16.6991 17.0118 17.0117C16.6993 17.3242 16.2754 17.4998 15.8333 17.4998H4.16667C3.72464 17.4998 3.30072 17.3242 2.98816 17.0117C2.67559 16.6991 2.5 16.2752 2.5 15.8332V14.1665" stroke="#686E80" stroke-width="1.5" stroke-linecap="round" strokeLinejoin="round"/>
<path d="M17.5 5.83333V4.16667C17.5 3.72464 17.3244 3.30072 17.0118 2.98816C16.6993 2.67559 16.2754 2.5 15.8333 2.5H4.16667C3.72464 2.5 3.30072 2.67559 2.98816 2.98816C2.67559 3.30072 2.5 3.72464 2.5 4.16667V5.83333" stroke="#686E80" stroke-width="1.5" stroke-linecap="round" strokeLinejoin="round"/>
</svg>
