<svg width="78" height="74" viewBox="0 0 78 74" fill="none" xmlns="http://www.w3.org/2000/svg">
<g clip-path="url(#clip0_9_751)">
<path d="M0 36.1049C0.65 33.8923 2.21406 32.3234 3.94062 30.8953C4.67188 30.2718 5.38281 29.6281 6.13438 29.0247C7.73906 27.7776 8.18594 26.2288 7.69844 24.2777C7.23125 22.4272 6.78437 20.5566 6.56094 18.6659C6.11406 14.8241 7.98281 12.5512 11.8625 11.988C13.7516 11.7064 15.6406 11.5455 17.5297 11.3846C19.175 11.2438 20.3125 10.4593 20.9828 8.95075C21.6938 7.3215 22.3844 5.67214 23.1766 4.06301C23.5625 3.27856 24.05 2.53433 24.6187 1.87057C26.0812 0.180977 27.9906 -0.402334 30.1031 0.34189C31.5047 0.82463 32.8047 1.58897 34.125 2.27285C35.2016 2.83605 36.2375 3.4797 37.3141 4.0429C38.4109 4.62621 39.5687 4.64632 40.6656 4.0429C41.8438 3.41936 43.0016 2.71536 44.1797 2.07171C45.2156 1.50851 46.2516 0.905087 47.3687 0.482689C50.0094 -0.523019 52.3047 0.160863 53.8891 2.49411C54.6406 3.58027 55.1688 4.82735 55.7578 6.01408C56.225 6.97956 56.6312 7.98527 57.0578 8.99098C57.6875 10.4794 58.8453 11.2237 60.45 11.3846C62.5625 11.6058 64.7156 11.7466 66.7875 12.1489C70.2609 12.8328 71.825 15.0453 71.4797 18.505C71.3781 19.571 71.1141 20.6371 70.9109 21.683C70.6875 22.8698 70.4234 24.0364 70.1797 25.2231C69.9359 26.43 70.2609 27.4759 71.175 28.3006C72.1297 29.1655 73.1047 30.0103 74.0594 30.8752C74.6891 31.4384 75.2984 31.9815 75.8875 32.5849C76.9234 33.6107 77.6344 34.8377 78 36.2658C78 36.7686 78 37.2715 78 37.7743C77.4922 39.826 76.1719 41.3144 74.6281 42.6621C73.7344 43.4465 72.8609 44.2511 71.9266 44.9752C70.3219 46.2424 69.8141 47.7912 70.3219 49.7825C70.7891 51.6129 71.2359 53.4433 71.4594 55.3139C71.8859 59.2563 70.0375 61.5091 66.0766 62.0521C64.2281 62.3136 62.3391 62.4745 60.4906 62.6556C58.8859 62.7964 57.7281 63.5607 57.0984 65.0491C56.3875 66.7186 55.6563 68.368 54.8844 69.9972C54.5188 70.7616 54.0312 71.4857 53.4828 72.1293C52 73.8592 50.0906 74.4425 47.9375 73.6982C46.6578 73.2557 45.4594 72.592 44.2406 71.9684C43.0422 71.3449 41.925 70.6409 40.7266 69.9972C39.6297 69.4139 38.4719 69.4139 37.375 69.9972C36.0344 70.7213 34.7547 71.5058 33.4141 72.2299C32.4391 72.7529 31.4437 73.296 30.4078 73.6379C27.9906 74.4626 25.8375 73.839 24.375 71.7472C23.5625 70.6208 22.9937 69.3134 22.3641 68.0462C21.8562 67.0405 21.4297 65.9945 20.9828 64.9486C20.3734 63.5004 19.2359 62.7964 17.6922 62.6354C15.5594 62.4142 13.3859 62.2734 11.2734 61.8711C7.82031 61.2073 6.23594 58.9747 6.58125 55.515C6.68281 54.449 6.94688 53.3829 7.15 52.337C7.39375 51.1302 7.65781 49.9233 7.88125 48.7164C8.10469 47.5901 7.8 46.6246 6.9875 45.82C6.37813 45.2166 5.72813 44.6534 5.09844 44.0701C4.57031 43.6075 4.02187 43.1649 3.49375 42.6822C1.86875 41.3346 0.507812 39.8461 0 37.7542C0 37.2112 0 36.648 0 36.1049Z" fill="#12D125"/>
<path d="M26.9746 34.0934C25.6137 34.1336 24.9027 34.5761 24.4965 35.4612C24.0699 36.3663 24.2731 37.3117 25.0449 38.076C27.9496 40.9523 30.8543 43.8287 33.759 46.705C35.1402 48.0727 36.3793 48.0727 37.7606 46.6849C42.7574 41.7368 47.734 36.8088 52.7309 31.8607C52.9543 31.6395 53.1574 31.4383 53.3402 31.1768C53.8887 30.3723 53.909 29.5275 53.4012 28.7028C52.8934 27.8781 52.0809 27.4557 51.1465 27.677C50.5777 27.7977 49.9684 28.1597 49.5418 28.5821C45.459 32.5647 41.4168 36.6077 37.3543 40.6104C36.1965 41.7569 35.3027 41.7569 34.1652 40.6305C32.2356 38.7398 30.3465 36.8088 28.3965 34.9382C27.9293 34.5158 27.2793 34.2744 26.9746 34.0934Z" fill="white"/>
</g>
<defs>
<clipPath id="clip0_9_751">
<rect width="78" height="74" fill="white"/>
</clipPath>
</defs>
</svg>
