<svg width="18" height="18" viewBox="0 0 18 18" fill="none" xmlns="http://www.w3.org/2000/svg">
<path d="M12 15.75V14.25C12 13.4544 11.6839 12.6913 11.1213 12.1287C10.5587 11.5661 9.79565 11.25 9 11.25H4.5C3.70435 11.25 2.94129 11.5661 2.37868 12.1287C1.81607 12.6913 1.5 13.4544 1.5 14.25V15.75" stroke="#686E80" stroke-width="1.5" stroke-linecap="round" strokeLinejoin="round"/>
<path d="M6.75 8.25C8.40685 8.25 9.75 6.90685 9.75 5.25C9.75 3.59315 8.40685 2.25 6.75 2.25C5.09315 2.25 3.75 3.59315 3.75 5.25C3.75 6.90685 5.09315 8.25 6.75 8.25Z" stroke="#686E80" stroke-width="1.5" stroke-linecap="round" strokeLinejoin="round"/>
<path d="M16.5 15.7502V14.2502C16.4995 13.5855 16.2783 12.9397 15.871 12.4144C15.4638 11.889 14.8936 11.5138 14.25 11.3477" stroke="#686E80" stroke-width="1.5" stroke-linecap="round" strokeLinejoin="round"/>
<path d="M12 2.34766C12.6453 2.51288 13.2173 2.88818 13.6257 3.41439C14.0342 3.9406 14.2559 4.58778 14.2559 5.25391C14.2559 5.92003 14.0342 6.56722 13.6257 7.09342C13.2173 7.61963 12.6453 7.99493 12 8.16016" stroke="#686E80" stroke-width="1.5" stroke-linecap="round" strokeLinejoin="round"/>
</svg>
