<svg width="25" height="25" viewBox="0 0 25 25" fill="none" xmlns="http://www.w3.org/2000/svg">
<path d="M20.8333 9.375H11.4583C10.3077 9.375 9.375 10.3077 9.375 11.4583V20.8333C9.375 21.9839 10.3077 22.9167 11.4583 22.9167H20.8333C21.9839 22.9167 22.9167 21.9839 22.9167 20.8333V11.4583C22.9167 10.3077 21.9839 9.375 20.8333 9.375Z" stroke="#8790AF" stroke-width="2" stroke-linecap="round" strokeLinejoin="round"/>
<path d="M5.20801 15.6257H4.16634C3.61381 15.6257 3.0839 15.4062 2.6932 15.0155C2.3025 14.6248 2.08301 14.0949 2.08301 13.5423V4.16732C2.08301 3.61478 2.3025 3.08488 2.6932 2.69418C3.0839 2.30348 3.61381 2.08398 4.16634 2.08398H13.5413C14.0939 2.08398 14.6238 2.30348 15.0145 2.69418C15.4052 3.08488 15.6247 3.61478 15.6247 4.16732V5.20898" stroke="#8790AF" stroke-width="2" stroke-linecap="round" strokeLinejoin="round"/>
</svg>
