<svg width="44" height="44" viewBox="0 0 44 44" fill="none" xmlns="http://www.w3.org/2000/svg">
<circle cx="22" cy="22" r="22" fill="#F4F6F8"/>
<path d="M19.9846 27.0424V29.0591C19.9846 29.594 19.7722 30.1069 19.394 30.4851C19.0158 30.8633 18.5028 31.0758 17.968 31.0758C17.4331 31.0758 16.9202 30.8633 16.542 30.4851C16.1638 30.1069 15.9513 29.594 15.9513 29.0591V14.9424C15.9513 14.4076 15.7388 13.8946 15.3606 13.5164C14.9824 13.1383 14.4695 12.9258 13.9346 12.9258C13.3998 12.9258 12.8868 13.1383 12.5086 13.5164C12.1304 13.8946 11.918 14.4076 11.918 14.9424V17.9674H14.943" stroke="#125ECB" stroke-width="1.5" stroke-linecap="round" strokeLinejoin="round"/>
<path d="M32.0835 27.043V29.0596C32.0835 29.5945 31.871 30.1074 31.4928 30.4856C31.1146 30.8638 30.6017 31.0763 30.0668 31.0763H17.9668" stroke="#125ECB" stroke-width="1.5" stroke-linecap="round" strokeLinejoin="round"/>
<path d="M29.0586 27.0424V14.9424C29.0586 14.4076 28.8461 13.8946 28.4679 13.5164C28.0897 13.1383 27.5768 12.9258 27.0419 12.9258H13.9336" stroke="#125ECB" stroke-width="1.5" stroke-linecap="round" strokeLinejoin="round"/>
<path d="M32.0844 27.043H19.9844" stroke="#125ECB" stroke-width="1.5" stroke-linecap="round" strokeLinejoin="round"/>
</svg>
