<svg width="44" height="44" viewBox="0 0 44 44" fill="none" xmlns="http://www.w3.org/2000/svg">
<circle cx="22" cy="22" r="22" fill="#F4F6F8"/>
<g clip-path="url(#clip0_70_12111)">
<path d="M14 21.9778C14 19.6718 14 17.3215 14 15.0155C14 13.286 15.3144 12 17.0822 12C19.1671 12 21.2975 12 23.3824 12C23.6544 12 23.8357 12.0887 24.0623 12.2661C25.9207 14.0843 27.8244 15.9468 29.6827 17.765C29.9093 17.9867 30 18.2084 30 18.5188C30 22.0222 30 25.4812 30 28.9845C30 30.4479 29.0482 31.6009 27.5977 31.9113C27.3711 31.9557 27.1445 31.9557 26.9632 31.9557C23.6544 31.9557 20.3909 31.9557 17.0822 31.9557C15.3144 31.9557 14 30.6696 14 28.9401C14 26.6785 14 24.3282 14 21.9778ZM22.8839 13.3304C22.7932 13.3304 22.7025 13.3304 22.6572 13.3304C20.7989 13.3304 18.9405 13.3304 17.1275 13.3304C16.0397 13.3304 15.3598 13.9956 15.3598 15.0599C15.3598 19.6718 15.3598 24.2838 15.3598 28.9401C15.3598 29.9601 16.0397 30.6253 17.1275 30.6253C20.3909 30.6253 23.6544 30.6253 26.9178 30.6253C27.9603 30.6253 28.6856 29.9601 28.6856 28.9401C28.6856 25.7029 28.6856 22.4656 28.6856 19.2284C28.6856 19.1397 28.6856 19.0953 28.6856 19.0067C28.5949 19.0067 28.5042 19.0067 28.4136 19.0067C27.4164 19.0067 26.3739 19.0067 25.3768 19.0067C23.9263 19.0067 22.9292 18.031 22.9292 16.612C22.9292 15.6364 22.9292 14.6164 22.9292 13.6408C22.8839 13.5078 22.8839 13.4634 22.8839 13.3304ZM24.1983 14.306C24.1983 15.0599 24.1983 15.8581 24.1983 16.612C24.1983 17.2328 24.6062 17.6319 25.2408 17.6319C25.966 17.6319 26.6912 17.6319 27.4618 17.6319C27.5071 17.6319 27.5524 17.6319 27.5977 17.6319C26.4646 16.5233 25.3314 15.459 24.1983 14.306Z" fill="#125ECB"/>
<path d="M21.9777 20.3359C22.5669 20.3359 23.1562 20.3359 23.7454 20.3359C24.1987 20.3359 24.5159 20.602 24.5159 21.0011C24.5159 21.4002 24.1987 21.6663 23.7907 21.6663C22.5669 21.6663 21.3885 21.6663 20.1647 21.6663C19.7114 21.6663 19.4395 21.4002 19.4395 21.0011C19.4395 20.602 19.7567 20.3359 20.21 20.3359C20.7992 20.3359 21.3885 20.3359 21.9777 20.3359Z" fill="#125ECB"/>
<path d="M21.9781 24.9944C21.3889 24.9944 20.7543 24.9944 20.1651 24.9944C19.7118 24.9944 19.3945 24.7284 19.3945 24.3293C19.3945 23.9301 19.7118 23.6641 20.1197 23.6641C21.3435 23.6641 22.522 23.6641 23.7458 23.6641C24.1991 23.6641 24.471 23.9301 24.471 24.3293C24.471 24.7284 24.1537 24.9944 23.7458 24.9944C23.2019 24.9944 22.6127 24.9944 21.9781 24.9944Z" fill="#125ECB"/>
<path d="M21.0712 26.9885C21.3885 26.9885 21.6604 26.9885 21.9777 26.9885C22.3856 26.9885 22.6576 27.2989 22.6576 27.6536C22.6576 28.0084 22.3403 28.3188 21.9777 28.3188C21.3431 28.3188 20.7539 28.3188 20.1193 28.3188C19.7114 28.3188 19.4395 28.0084 19.4395 27.6536C19.4395 27.2989 19.7567 26.9885 20.1193 26.9885C20.4366 26.9441 20.7539 26.9885 21.0712 26.9885Z" fill="#125ECB"/>
</g>
<defs>
<clipPath id="clip0_70_12111">
<rect width="16" height="20" fill="white" transform="translate(14 12)"/>
</clipPath>
</defs>
</svg>
