<svg width="44" height="44" viewBox="0 0 44 44" fill="none" xmlns="http://www.w3.org/2000/svg">
<circle cx="22" cy="22" r="22" fill="#F4F6F8"/>
<g clip-path="url(#clip0_70_7765)">
<path d="M22.8072 10C23.6192 10.2695 24.4757 10.4452 25.2377 10.8318C29.0864 12.7942 30.5047 17.8731 28.2967 21.7217C27.5069 23.0984 26.6726 24.4398 25.8384 25.834C26.4168 25.9688 26.9785 26.0332 27.5013 26.2324C28.5414 26.6248 29.5981 27.0056 30.5714 27.5387C31.4891 28.0425 32.1231 28.8567 31.9785 30.0752C31.9007 30.7723 31.5169 31.2819 31.0219 31.7037C29.7427 32.7757 28.2077 33.2033 26.6448 33.5255C23.3745 34.1992 20.0987 34.164 16.845 33.4201C15.5436 33.1213 14.27 32.6995 13.1687 31.8501C11.6281 30.661 11.6003 28.927 13.1465 27.7379C14.3923 26.7772 15.8551 26.3612 17.34 26.0273C17.6126 25.9688 17.8795 25.9102 18.1965 25.8457C17.4346 24.5863 16.7171 23.3678 15.9663 22.1728C12.924 17.3049 15.5547 10.99 21.0108 10.082C21.0775 10.0703 21.1443 10.0293 21.211 10C21.7394 10 22.2733 10 22.8072 10ZM21.9785 29.4718C22.0564 29.3957 22.0898 29.3722 22.112 29.3371C23.8528 26.455 25.6159 23.5904 27.3122 20.679C27.6571 20.0874 27.8573 19.3493 27.9407 18.6522C28.4691 14.3583 25.1265 10.9021 21.072 11.4938C17.3845 12.0327 14.9819 16.35 16.4168 19.9702C16.8562 21.0774 17.5291 22.0908 18.1409 23.1218C19.3979 25.2365 20.6826 27.3278 21.9785 29.4718ZM22.3957 32.5941C23.0019 32.5472 23.9807 32.5062 24.9541 32.3832C26.6059 32.1782 28.2355 31.8501 29.6982 30.9422C31.0052 30.1338 30.9941 29.3722 29.6815 28.5755C28.3467 27.7613 26.8728 27.4508 25.3712 27.2048C25.1042 27.1638 24.9763 27.2224 24.8373 27.4567C24.1476 28.6224 23.4413 29.7764 22.7349 30.9304C22.2566 31.7154 21.7616 31.7213 21.2889 30.9363C20.5881 29.7823 19.8817 28.6283 19.1865 27.4625C19.0531 27.2399 18.9363 27.1345 18.6582 27.1989C17.9963 27.3629 17.3178 27.445 16.6559 27.6207C15.6882 27.8726 14.7427 28.2006 13.9474 28.8567C13.1187 29.5362 13.1354 30.1923 14.0531 30.7606C14.6871 31.1472 15.3656 31.4811 16.0664 31.7213C17.9963 32.3949 20.0041 32.5472 22.3957 32.5941Z" fill="#125ECB"/>
<path d="M21.961 21.2815C20.1034 21.2346 18.6295 19.6354 18.6851 17.7199C18.7407 15.7574 20.2647 14.2168 22.0778 14.2812C23.9243 14.3457 25.3703 15.9156 25.3314 17.8194C25.298 19.7701 23.7797 21.3284 21.961 21.2815ZM23.9966 17.7843C24.0021 16.6303 23.1345 15.6989 22.0333 15.6813C20.9209 15.6637 20.0199 16.5951 20.0144 17.7726C20.0088 18.9266 20.8764 19.858 21.9777 19.8756C23.0956 19.8932 23.9966 18.9559 23.9966 17.7843Z" fill="#125ECB"/>
</g>
<defs>
<clipPath id="clip0_70_7765">
<rect width="20" height="24" fill="white" transform="translate(12 10)"/>
</clipPath>
</defs>
</svg>
