<svg width="44" height="44" viewBox="0 0 44 44" fill="none" xmlns="http://www.w3.org/2000/svg">
<circle cx="22" cy="22" r="22" fill="#F4F6F8"/>
<path d="M31 17.5V16C31 15.4696 30.7893 14.9609 30.4142 14.5858C30.0391 14.2107 29.5304 14 29 14H15C14.4696 14 13.9609 14.2107 13.5858 14.5858C13.2107 14.9609 13 15.4696 13 16V30C13 30.5304 13.2107 31.0391 13.5858 31.4142C13.9609 31.7893 14.4696 32 15 32H18.5" stroke="#125ECB" stroke-width="1.5" stroke-linecap="round" strokeLinejoin="round"/>
<path d="M26 12V16" stroke="#125ECB" stroke-width="1.5" stroke-linecap="round" strokeLinejoin="round"/>
<path d="M18 12V16" stroke="#125ECB" stroke-width="1.5" stroke-linecap="round" strokeLinejoin="round"/>
<path d="M13 20H18" stroke="#125ECB" stroke-width="1.5" stroke-linecap="round" strokeLinejoin="round"/>
<path d="M27.5 27.5L26 26.25V24" stroke="#125ECB" stroke-width="1.5" stroke-linecap="round" strokeLinejoin="round"/>
<path d="M32 26C32 27.5913 31.3679 29.1174 30.2426 30.2426C29.1174 31.3679 27.5913 32 26 32C24.4087 32 22.8826 31.3679 21.7574 30.2426C20.6321 29.1174 20 27.5913 20 26C20 24.4087 20.6321 22.8826 21.7574 21.7574C22.8826 20.6321 24.4087 20 26 20C27.5913 20 29.1174 20.6321 30.2426 21.7574C31.3679 22.8826 32 24.4087 32 26Z" stroke="#125ECB" stroke-width="1.5" stroke-linecap="round" strokeLinejoin="round"/>
</svg>
